<?xml version="1.0" encoding="utf-8"?>
<svg x="7874.45px" y="-12076.9px" width="74.9766px" height="98.6445px" viewBox="7874.45 -12076.9 74.9766 98.6445" xmlns="http://www.w3.org/2000/svg" xmlns:xlink="http://www.w3.org/1999/xlink">
  <!--Generated by AMDN-->
  <g id="Group">
    <path id="Path" style="fill:#ffffff;fill-opacity:1;fill-rule:evenodd;opacity:1;stroke:#000000;stroke-linecap:butt;stroke-linejoin:miter;stroke-miterlimit:10;stroke-opacity:1;stroke-width:5;" d="M7876.95,-12074.4 C7876.95,-12074.4,7936.95,-12074.4,7936.95,-12074.4 C7936.95,-12074.4,7936.95,-11996.6,7936.95,-11996.6 C7936.95,-11996.6,7876.95,-11996.6,7876.95,-11996.6 C7876.95,-11996.6,7876.95,-12074.4,7876.95,-12074.4 z"/>
    <path id="Path-1" style="fill:#ffffff;fill-opacity:1;fill-rule:evenodd;opacity:1;stroke:#000000;stroke-linecap:butt;stroke-linejoin:miter;stroke-miterlimit:10;stroke-opacity:1;stroke-width:5;" d="M7886.92,-12060.3 C7886.92,-12060.3,7946.92,-12060.3,7946.92,-12060.3 C7946.92,-12060.3,7946.92,-11982.5,7946.92,-11982.5 C7946.92,-11982.5,7886.92,-11982.5,7886.92,-11982.5 C7886.92,-11982.5,7886.92,-12060.3,7886.92,-12060.3 z"/>
    <g id="Text">
      <g id="Text-1">
        <path style="fill:#000000;fill-opacity:1;fill-rule:nonzero;opacity:1;stroke:none;" d="M7934.76,-11997.7 C7934.76,-11997.7,7901.47,-11997.7,7901.47,-11997.7 C7901.47,-11997.7,7901.47,-12002.7,7901.47,-12002.7 C7901.47,-12002.7,7934.76,-12002.7,7934.76,-12002.7 C7934.76,-12002.7,7934.76,-11997.7,7934.76,-11997.7 z M7923,-12017.7 C7923,-12017.7,7901.34,-12017.7,7901.34,-12017.7 C7901.34,-12017.7,7901.34,-12022.8,7901.34,-12022.8 C7901.34,-12022.8,7923,-12022.8,7923,-12022.8 C7923,-12022.8,7923,-12017.7,7923,-12017.7 z M7912.43,-12031.1 C7912.43,-12031.1,7913.14,-12010.6,7913.14,-12010.6 C7913.16,-12008.6,7912.87,-12006.7,7912.27,-12005 C7911.67,-12003.2,7910.77,-12001.9,7909.56,-12001 C7909.56,-12001,7903.96,-12002.7,7903.96,-12002.7 C7904.71,-12002.9,7905.3,-12003.4,7905.74,-12004.3 C7906.18,-12005.2,7906.5,-12006.3,7906.68,-12007.4 C7906.86,-12008.6,7906.95,-12009.6,7906.95,-12010.6 C7906.95,-12010.6,7906.24,-12031.1,7906.24,-12031.1 C7906.24,-12034.1,7906.87,-12036.6,7908.11,-12038.7 C7909.36,-12040.8,7911.06,-12042.4,7913.22,-12043.5 C7915.38,-12044.7,7917.82,-12045.2,7920.55,-12045.2 C7923.37,-12045.2,7925.76,-12044.7,7927.74,-12043.6 C7929.71,-12042.6,7931.23,-12041.1,7932.28,-12039.2 C7933.33,-12037.4,7933.86,-12035.2,7933.86,-12032.7 C7933.86,-12032.7,7927.67,-12032.7,7927.67,-12032.7 C7927.67,-12034.5,7927.31,-12035.9,7926.59,-12037 C7925.87,-12038.1,7924.93,-12038.9,7923.77,-12039.4 C7922.61,-12039.9,7921.37,-12040.2,7920.04,-12040.2 C7918.62,-12040.2,7917.33,-12039.8,7916.19,-12039.1 C7915.04,-12038.4,7914.12,-12037.4,7913.45,-12036 C7912.77,-12034.7,7912.43,-12033.1,7912.43,-12031.1 z"/>
      </g>
    </g>
  </g>
</svg>
